<svg xmlns="http://www.w3.org/2000/svg" width="24" height="24" viewBox="0 0 24 24" fill="none">
  <rect width="24" height="24" rx="7" fill="#1F8F55"/>
  <path d="M12.1 6.8C9.75 6.8 8 8.6 8 11.05C8 13.45 9.75 15.2 12.1 15.2C13.1 15.2 13.95 14.95 14.55 14.45V15H16.5V11.15C16.5 8.7 14.6 6.8 12.1 6.8ZM12.2 13.35C10.95 13.35 10.1 12.45 10.1 11.05C10.1 9.65 10.95 8.7 12.2 8.7C13.45 8.7 14.35 9.65 14.35 11.05C14.35 12.45 13.45 13.35 12.2 13.35Z" fill="#F7F4EA"/>
  <path d="M6.9 17.4C9.55 18.65 13.95 18.6 17.15 16.95" stroke="#F6B34B" stroke-width="1.6" stroke-linecap="round"/>
</svg>
